{"title":"Transformers.Prime.S02E19.HDTV.x264-h65.mp4","uid":7643769,"size":203223546,"categoryP":"video","categoryS":"tv_shows","magnet":"?xt=urn:btih:05925d781cfe86d539bfea6aa913e2686aebd0c3&amp;dn=Transformers.Prime.S02E19.HDTV.x264-h65.mp4&amp;tr=udp%3A%2F%2Ftracker.openbittorrent.com%3A80&amp;tr=udp%3A%2F%2Fopen.demonii.com%3A1337&amp;tr=udp%3A%2F%2Ftracker.coppersurfer.tk%3A6969&amp;tr=udp%3A%2F%2Fexodus.desync.com%3A6969","seeders":0,"leechers":1,"uploader":"helder1965","files":-1,"time":1347848620,"description":"Transformers.Prime.S02E19.HDTV.x264-h65.mp4\n\n\nGeneral\nFormat                                   : MPEG-4\nFormat profile                           : Base Media\nCodec ID                                 : isom\nFile size                                : 194 MiB\nDuration                                 : 22mn 1s\nOverall bit rate mode                    : Variable\nOverall bit rate                         : 1 230 Kbps\n\n\nVideo\nID                                       : 1\nFormat                                   : AVC\nFormat/Info                              : Advanced Video Codec\nFormat profile                           : &lt;a class=&quot;__cf_email__&quot; href=&quot;/cdn-cgi/l/email-protection&quot; data-cfemail=&quot;95ddfcf2fdd5d9a6bba4&quot;&gt;[email&amp;#160;protected]&lt;/a&gt;&lt;script cf-hash='f9e31' type=&quot;text/javascript&quot;&gt;\n/* &lt;![CDATA[ */!function(){try{var t=&quot;currentScript&quot;in document?document.currentScript:function(){for(var t=document.getElementsByTagName(&quot;script&quot;),e=t.length;e--;)if(t[e].getAttribute(&quot;cf-hash&quot;))return t[e]}();if(t&amp;&amp;t.previousSibling){var e,r,n,i,c=t.previousSibling,a=c.getAttribute(&quot;data-cfemail&quot;);if(a){for(e=&quot;&quot;,r=parseInt(a.substr(0,2),16),n=2;a.length-n;n+=2)i=parseInt(a.substr(n,2),16)^r,e+=String.fromCharCode(i);e=document.createTextNode(e),c.parentNode.replaceChild(e,c)}}}catch(u){}}();/* ]]&gt; */&lt;/script&gt;\nFormat settings, CABAC                   : Yes\nFormat settings, ReFrames                : 2 frames\nCodec ID                                 : avc1\nCodec ID/Info                            : Advanced Video Coding\nDuration                                 : 22mn 1s\nBit rate                                 : 1 034 Kbps\nMaximum bit rate                         : 4 224 Kbps\nWidth                                    : 720 pixels\nHeight                                   : 400 pixels\nDisplay aspect ratio                     : 16:9\nFrame rate mode                          : Constant\nFrame rate                               : 23.976 fps\nColor space                              : YUV\nChroma subsampling                       : 4:2:0\nBit depth                                : 8 bits\nScan type                                : Progressive\nBits/(Pixel*Frame)                       : 0.150\nStream size                              : 163 MiB (84%)\nWriting library                          : x264 core 125 r2200 999b753\n\n\nAudio\nID                                       : 2\nFormat                                   : AAC\nFormat/Info                              : Advanced Audio Codec\nFormat profile                           : LC\nCodec ID                                 : 40\nDuration                                 : 22mn 1s\nBit rate mode                            : Variable\nBit rate                                 : 192 Kbps\nMaximum bit rate                         : 199 Kbps\nChannel(s)                               : 2 channels\nChannel positions                        : Front: L R\nSampling rate                            : 48.0 KHz\nCompression mode                         : Lossy\nStream size                              : 30.3 MiB (16%)\n\n\nEnjoy and seed it, buddies!\n\n&quot;-h65&quot;, a new name for an old friend of yours!\nYeah, baby!\n@helder1965","torrent":{"xt":"urn:btih:05925d781cfe86d539bfea6aa913e2686aebd0c3","amp;dn":"Transformers.Prime.S02E19.HDTV.x264-h65.mp4","amp;tr":["udp%3A%2F%2Ftracker.openbittorrent.com%3A80","udp%3A%2F%2Fopen.demonii.com%3A1337","udp%3A%2F%2Ftracker.coppersurfer.tk%3A6969","udp%3A%2F%2Fexodus.desync.com%3A6969"],"infoHash":"05925d781cfe86d539bfea6aa913e2686aebd0c3","infoHashBuffer":{"type":"Buffer","data":[5,146,93,120,28,254,134,213,57,191,234,106,169,19,226,104,106,235,208,195]},"announce":[],"urlList":[]}}